<svg height="800px" width="800px" version="1.1" id="Layer_1" xmlns="http://www.w3.org/2000/svg" xmlns:xlink="http://www.w3.org/1999/xlink" 
	 viewBox="0 0 512 512" xml:space="preserve">
<polygon style="fill:#A66206;" points="323.227,395.346 306.389,482.836 255.877,512 205.363,482.836 188.526,395.346 
	255.877,434.23 "/>
<polygon style="fill:#FF9911;" points="171.688,366.182 255.877,317.576 340.064,366.182 340.064,385.624 255.877,434.23 
	171.688,385.624 "/>
<polygon style="fill:#884D01;" points="188.526,366.182 255.877,327.297 323.227,366.182 255.877,405.067 "/>
<polygon style="fill:#F18700;" points="171.688,366.182 171.688,385.624 255.877,434.23 255.877,414.788 "/>
<g>
	<polygon style="fill:#D07400;" points="255.877,414.788 340.064,366.182 340.064,385.624 255.877,434.23 	"/>
	<polygon style="fill:#D07400;" points="188.526,395.346 205.363,482.836 255.877,512 255.877,434.23 	"/>
</g>
<path style="fill:#A66206;" d="M267.349,259.216c0.051-1.665-0.998-3.325-3.16-4.574c-4.288-2.475-11.499-2.475-16.024,0
	c-2.282,1.249-3.429,2.909-3.443,4.574l0.016,105.4c-0.116,1.708,0.958,3.439,3.251,4.75c4.427,2.532,11.638,2.532,16.024,0
	c2.271-1.311,3.377-3.042,3.33-4.75L267.349,259.216z"/>
<circle style="fill:#9CDD03;" cx="256" cy="158.785" r="158.785"/>
<circle style="fill:#B3FA08;" cx="228.508" cy="126.09" r="107.866"/>
</svg>